<?xml version="1.0" encoding="utf-8"?>
<!-- Generator: Adobe Illustrator 21.1.0, SVG Export Plug-In . SVG Version: 6.00 Build 0)  -->
<svg version="1.1" xmlns="http://www.w3.org/2000/svg" xmlns:xlink="http://www.w3.org/1999/xlink" x="0px" y="0px"
	 viewBox="0 0 510.2 510.2" style="enable-background:new 0 0 510.2 510.2;" xml:space="preserve">
<style type="text/css">
	.st0{fill:#FFFFFF;stroke:#004996;stroke-width:2;stroke-miterlimit:10;}
	.st1{fill:#004996;}
	.st2{fill:#575756;}
	.st3{fill:#FFED00;}
</style>
<g id="Layer_2">
	<path class="st0" d="M379.4,473.4H145c-20.2,0-36.7-16.5-36.7-36.7v-361c0-20.2,16.5-36.7,36.7-36.7h234.4
		c20.2,0,36.7,16.5,36.7,36.7v361C416.1,456.9,399.6,473.4,379.4,473.4z"/>
</g>
<g id="Layer_1">
	<g>
		<path class="st1" d="M245.4,180.1c9.3-9.3,24.4-9.3,33.7,0c9.3,9.3,9.3,24.4,0,33.7c-9.3,9.3-24.4,9.3-33.7,0
			C236.1,204.5,236.1,189.5,245.4,180.1z"/>
		<path class="st1" d="M224.6,159.4l-11.9-11.9c27.3-27.3,71.6-27.3,98.9,0l-11.9,11.9C279.1,138.7,245.4,138.7,224.6,159.4z"/>
		<path class="st1" d="M201.2,135.9L189.3,124c40.2-40.2,105.6-40.2,145.8,0l-11.9,11.9C289.6,102.3,234.8,102.3,201.2,135.9z"/>
		<path class="st1" d="M178.9,113.6l-11.9-11.9c52.5-52.5,137.8-52.5,190.3,0l-11.9,11.9C299.6,67.7,224.8,67.7,178.9,113.6z"/>
		<g>
			<path class="st1" d="M202.3,259.1l-1.3,4l-1,2.9c-0.3,0.8-0.6,1.4-2.1,1.4h-4.4c-1.4,0-1.9-0.5-2.2-1.4l-6.6-24
				c-0.2-0.7-0.1-1.2,0.8-1.2h5.7c1.1,0,1.6,0.3,1.8,1.3l1.7,7.8l1.6,7.1h0.2l1.3-4.6l1.2-4.2l-2-6.3c-0.2-0.5,0-1.2,0.6-1.2h5.2
				c1.1,0,1.6,0.3,1.9,1.3l2.2,9l1.4,6h0.2l1.2-6.8l1.6-8.2c0.2-1,0.8-1.3,2-1.3h5.4c0.9,0,1,0.5,0.8,1.2l-6,24
				c-0.3,0.9-0.8,1.4-2.2,1.4h-4.4c-1.6,0-1.8-0.6-2.1-1.4l-0.9-2.9l-1.3-4H202.3z"/>
			<path class="st1" d="M225.6,245.9c-3.4,0-3.8-1.9-3.8-3.6c0-1.9,0.8-3.5,3.8-3.5c3.2,0,3.8,1.5,3.8,3.5
				C229.5,244.1,228.9,245.9,225.6,245.9z M229.3,266.4c0,0.3-0.1,1-0.9,1h-5.6c-0.8,0-1-0.4-1-1v-18c0-0.5,0.2-1,1-1h5.6
				c0.8,0,0.9,0.6,0.9,1V266.4z"/>
			<path class="st1" d="M234.2,241.8c0-0.5,0.2-1,1-1h16.5c0.6,0,1,0.4,1,1v4.6c0,0.5-0.2,0.9-1,0.9h-9.6v3.2h8c0.6,0,1,0.4,1,1v4.6
				c0,0.5-0.2,0.9-1,0.9h-8v9.6c0,0.3-0.1,1-0.9,1h-6c-0.8,0-1-0.4-1-1L234.2,241.8z"/>
			<path class="st1" d="M259.2,245.9c-3.4,0-3.8-1.9-3.8-3.6c0-1.9,0.8-3.5,3.8-3.5c3.2,0,3.8,1.5,3.8,3.5
				C263,244.1,262.4,245.9,259.2,245.9z M262.8,266.4c0,0.3-0.1,1-0.9,1h-5.6c-0.8,0-1-0.4-1-1v-18c0-0.5,0.2-1,1-1h5.6
				c0.8,0,0.9,0.6,0.9,1V266.4z"/>
			<path class="st1" d="M285.8,266.4c0,0.3-0.1,1-0.9,1h-5.7c-0.8,0-1-0.4-1-1V262l-11,0c-0.7,0-1.3-0.3-1.3-1.2v-3.8
				c0-0.4,0-0.8,0.4-1.4l10.9-14c0.5-0.6,1-0.8,1.8-0.8h5.7c0.8,0,0.9,0.6,0.9,1v13.9h2.4c0.8,0,0.9,0.3,0.9,0.9v4.4
				c0,0.7-0.1,1-0.9,1l-2.4,0V266.4z M278.2,250.4l-3.9,5.3v0.2h4.1v-5.5H278.2z"/>
			<path class="st1" d="M292.4,241.8c0-0.5,0.2-1,1-1h16.8c0.6,0,1,0.4,1,1v4.6c0,0.5-0.2,0.9-1,0.9h-9.9v3.2h8.6c0.6,0,1,0.4,1,1
				v4.6c0,0.5-0.2,0.9-1,0.9h-8.6v4.1h10.1c0.6,0,1,0.4,1,1v4.6c0,0.5-0.2,0.9-1,0.9h-17c-0.8,0-1-0.4-1-1V241.8z"/>
			<path class="st1" d="M329.8,257.1l0-15.4c0-0.5,0.2-1,1-1h5.9c0.8,0,0.9,0.6,0.9,1v15.6c0,1.5-0.1,3.1-0.8,4.8
				c-1.7,4-6,5.6-10.2,5.6c-3.8,0-6.6-1.2-8.4-3.1c-1.7-1.9-2.5-4.4-2.5-7.3v-15.6c0-0.5,0.2-1,1-1h5.9c0.8,0,0.9,0.6,0.9,1v15.4
				c0,2.7,1.1,4,3.1,4C328.7,261.1,329.8,259.8,329.8,257.1z"/>
		</g>
		<g>
			<path class="st2" d="M195.3,309.3c-0.5,0.3-1.7,0.5-3.2,0.5c-3.9,0-6.2-2.4-6.2-6.1c0-4,2.8-6.4,6.5-6.4c1.5,0,2.5,0.3,2.9,0.5
				l-0.5,1.8c-0.6-0.3-1.4-0.5-2.4-0.5c-2.5,0-4.2,1.5-4.2,4.5c0,2.7,1.5,4.4,4.2,4.4c0.9,0,1.8-0.2,2.4-0.4L195.3,309.3z"/>
			<path class="st2" d="M205.1,305.2c0,3.2-2.3,4.7-4.5,4.7c-2.5,0-4.4-1.7-4.4-4.5c0-2.9,1.9-4.6,4.5-4.6
				C203.4,300.7,205.1,302.5,205.1,305.2z M198.5,305.3c0,1.7,0.8,3,2.2,3c1.3,0,2.1-1.2,2.1-3c0-1.4-0.6-3-2.1-3
				C199.1,302.3,198.5,303.8,198.5,305.3z"/>
			<path class="st2" d="M207.2,309.6v-7.1H206v-1.7h1.2v-0.4c0-2.4,1.6-3.8,4.2-3.8c0.9,0,1.9,0.2,2.4,0.6l-0.5,1.7
				c-0.4-0.2-1.1-0.5-1.9-0.5c-1.5,0-2,0.9-2,2.1v0.4h5.2v8.8h-2.2v-7.1h-3v7.1H207.2z"/>
			<path class="st2" d="M217,303.5c0-1,0-1.9-0.1-2.6h1.9l0.1,1.3h0.1c0.4-0.7,1.4-1.5,2.8-1.5c1.5,0,3.1,1,3.1,3.8v5.2h-2.2v-5
				c0-1.3-0.5-2.2-1.7-2.2c-0.9,0-1.5,0.6-1.7,1.3c-0.1,0.2-0.1,0.5-0.1,0.7v5.2H217V303.5z"/>
			<path class="st2" d="M234.1,307.5c0,0.8,0,1.6,0.1,2.1h-2l-0.2-1H232c-0.5,0.7-1.4,1.2-2.6,1.2c-1.8,0-2.8-1.3-2.8-2.6
				c0-2.2,2-3.3,5.2-3.3v-0.1c0-0.6-0.2-1.5-1.8-1.5c-0.9,0-1.8,0.3-2.4,0.6l-0.4-1.4c0.6-0.4,1.8-0.8,3.2-0.8
				c2.8,0,3.6,1.8,3.6,3.7V307.5z M231.9,305.4c-1.6,0-3.1,0.3-3.1,1.6c0,0.9,0.6,1.3,1.3,1.3c0.9,0,1.5-0.6,1.7-1.2
				c0.1-0.2,0.1-0.3,0.1-0.5V305.4z"/>
			<path class="st2" d="M236.4,303.5c0-1,0-1.9-0.1-2.6h1.9l0.1,1.3h0.1c0.4-0.7,1.4-1.5,2.8-1.5c1.5,0,3.1,1,3.1,3.8v5.2h-2.2v-5
				c0-1.3-0.5-2.2-1.7-2.2c-0.9,0-1.5,0.6-1.7,1.3c-0.1,0.2-0.1,0.5-0.1,0.7v5.2h-2.2V303.5z"/>
			<path class="st2" d="M253.2,309.4c-0.5,0.2-1.4,0.5-2.5,0.5c-2.7,0-4.5-1.8-4.5-4.5c0-2.6,1.8-4.7,4.9-4.7c0.8,0,1.6,0.2,2.1,0.4
				l-0.4,1.7c-0.4-0.2-0.9-0.3-1.7-0.3c-1.7,0-2.7,1.2-2.7,2.8c0,1.8,1.2,2.8,2.7,2.8c0.8,0,1.3-0.2,1.7-0.3L253.2,309.4z"/>
			<path class="st2" d="M257.2,298.4c0,0.6-0.5,1.2-1.3,1.2c-0.7,0-1.2-0.5-1.2-1.2c0-0.7,0.5-1.2,1.2-1.2
				C256.7,297.2,257.1,297.7,257.2,298.4z M254.8,309.6v-8.8h2.2v8.8H254.8z"/>
			<path class="st2" d="M266.2,307.5c0,0.8,0,1.6,0.1,2.1h-2l-0.2-1h-0.1c-0.5,0.7-1.4,1.2-2.6,1.2c-1.8,0-2.8-1.3-2.8-2.6
				c0-2.2,2-3.3,5.2-3.3v-0.1c0-0.6-0.2-1.5-1.8-1.5c-0.9,0-1.8,0.3-2.4,0.6l-0.4-1.4c0.6-0.4,1.8-0.8,3.2-0.8
				c2.8,0,3.6,1.8,3.6,3.7V307.5z M264.1,305.4c-1.6,0-3.1,0.3-3.1,1.6c0,0.9,0.6,1.3,1.3,1.3c0.9,0,1.5-0.6,1.7-1.2
				c0.1-0.2,0.1-0.3,0.1-0.5V305.4z"/>
			<path class="st2" d="M276.6,296.9v10.3c0,0.9,0,1.9,0.1,2.5h-2l-0.1-1.4h0c-0.5,1-1.6,1.6-2.8,1.6c-2.1,0-3.8-1.8-3.8-4.5
				c0-2.9,1.8-4.7,3.9-4.7c1.2,0,2.1,0.5,2.5,1.1h0v-5H276.6z M274.4,304.5c0-0.2,0-0.4-0.1-0.6c-0.2-0.8-0.9-1.5-1.9-1.5
				c-1.4,0-2.2,1.3-2.2,2.9c0,1.6,0.8,2.8,2.2,2.8c0.9,0,1.7-0.6,1.9-1.6c0.1-0.2,0.1-0.4,0.1-0.6V304.5z"/>
			<path class="st2" d="M287.4,305.2c0,3.2-2.3,4.7-4.5,4.7c-2.5,0-4.4-1.7-4.4-4.5c0-2.9,1.9-4.6,4.5-4.6
				C285.6,300.7,287.4,302.5,287.4,305.2z M280.7,305.3c0,1.7,0.8,3,2.2,3c1.3,0,2.1-1.2,2.1-3c0-1.4-0.6-3-2.1-3
				C281.4,302.3,280.7,303.8,280.7,305.3z"/>
			<path class="st2" d="M292.9,303.8c0-1.2,0-2.1-0.1-2.9h1.9l0.1,1.4h0c0.6-1,1.7-1.5,3-1.5c2,0,3.7,1.7,3.7,4.5c0,3.2-2,4.7-4,4.7
				c-1.1,0-2-0.5-2.5-1.2h0v4.5h-2.2V303.8z M295.1,306c0,0.2,0,0.4,0.1,0.6c0.2,0.9,1,1.5,2,1.5c1.4,0,2.2-1.2,2.2-2.9
				c0-1.5-0.8-2.8-2.2-2.8c-0.9,0-1.8,0.7-2,1.6c0,0.2-0.1,0.4-0.1,0.6V306z"/>
			<path class="st2" d="M311.8,305.2c0,3.2-2.3,4.7-4.5,4.7c-2.5,0-4.4-1.7-4.4-4.5c0-2.9,1.9-4.6,4.5-4.6
				C310,300.7,311.8,302.5,311.8,305.2z M305.2,305.3c0,1.7,0.8,3,2.2,3c1.3,0,2.1-1.2,2.1-3c0-1.4-0.6-3-2.1-3
				C305.8,302.3,305.2,303.8,305.2,305.3z"/>
			<path class="st2" d="M313.6,303.7c0-1.2,0-2.1-0.1-2.8h1.9l0.1,1.7h0.1c0.4-1.2,1.5-1.9,2.4-1.9c0.2,0,0.3,0,0.5,0.1v2.1
				c-0.2,0-0.4-0.1-0.7-0.1c-1,0-1.8,0.7-2,1.7c0,0.2-0.1,0.4-0.1,0.7v4.6h-2.2V303.7z"/>
			<path class="st2" d="M186.5,318.5h2.2v12.8h-2.2V318.5z"/>
			<path class="st2" d="M197.9,329.1c0,0.8,0,1.6,0.1,2.1h-2l-0.2-1h-0.1c-0.5,0.7-1.4,1.2-2.6,1.2c-1.8,0-2.8-1.3-2.8-2.6
				c0-2.2,2-3.3,5.2-3.3v-0.1c0-0.6-0.2-1.5-1.8-1.5c-0.9,0-1.8,0.3-2.4,0.6l-0.4-1.4c0.6-0.4,1.8-0.8,3.2-0.8
				c2.8,0,3.6,1.8,3.6,3.7V329.1z M195.8,327c-1.6,0-3.1,0.3-3.1,1.6c0,0.9,0.6,1.3,1.3,1.3c0.9,0,1.5-0.6,1.7-1.2
				c0.1-0.2,0.1-0.3,0.1-0.5V327z"/>
			<path class="st2" d="M206.3,319.1v7.1c0,2.4,1,3.5,2.5,3.5c1.6,0,2.6-1.1,2.6-3.5v-7.1h2.2v6.9c0,3.7-1.9,5.4-4.8,5.4
				c-2.8,0-4.6-1.6-4.6-5.4v-7H206.3z"/>
			<path class="st2" d="M216,325.1c0-1,0-1.9-0.1-2.6h1.9l0.1,1.3h0.1c0.4-0.7,1.4-1.5,2.8-1.5c1.5,0,3.1,1,3.1,3.8v5.2h-2.2v-5
				c0-1.3-0.5-2.2-1.7-2.2c-0.9,0-1.5,0.6-1.7,1.3c-0.1,0.2-0.1,0.5-0.1,0.7v5.2H216V325.1z"/>
			<path class="st2" d="M228.6,320c0,0.6-0.5,1.2-1.3,1.2c-0.7,0-1.2-0.5-1.2-1.2c0-0.7,0.5-1.2,1.2-1.2
				C228.1,318.8,228.6,319.3,228.6,320z M226.3,331.2v-8.8h2.2v8.8H226.3z"/>
			<path class="st2" d="M239.2,326.8c0,3.2-2.3,4.7-4.5,4.7c-2.5,0-4.4-1.7-4.4-4.5c0-2.9,1.9-4.6,4.5-4.6
				C237.5,322.3,239.2,324.1,239.2,326.8z M232.6,326.9c0,1.7,0.8,3,2.2,3c1.3,0,2.1-1.2,2.1-3c0-1.4-0.6-3-2.1-3
				C233.2,323.9,232.6,325.4,232.6,326.9z M237.4,318.7l-2.2,2.7h-1.5l1.6-2.7H237.4z"/>
			<path class="st2" d="M241,325.1c0-1,0-1.9-0.1-2.6h1.9l0.1,1.3h0.1c0.4-0.7,1.4-1.5,2.8-1.5c1.5,0,3.1,1,3.1,3.8v5.2h-2.2v-5
				c0-1.3-0.5-2.2-1.7-2.2c-0.9,0-1.5,0.6-1.7,1.3c-0.1,0.2-0.1,0.5-0.1,0.7v5.2H241V325.1z"/>
			<path class="st2" d="M261.9,325.9h-4.6v3.6h5.1v1.8h-7.3v-12.1h7.1v1.8h-4.8v3.1h4.6V325.9z"/>
			<path class="st2" d="M272,328.6c0,1,0,1.9,0.1,2.6h-1.9l-0.1-1.3H270c-0.4,0.6-1.2,1.5-2.8,1.5c-1.6,0-3-1-3-3.8v-5.1h2.2v4.8
				c0,1.5,0.5,2.4,1.6,2.4c0.9,0,1.5-0.6,1.7-1.2c0.1-0.2,0.1-0.4,0.1-0.7v-5.3h2.2V328.6z"/>
			<path class="st2" d="M274.4,325.3c0-1.2,0-2.1-0.1-2.8h1.9l0.1,1.7h0.1c0.4-1.2,1.5-1.9,2.4-1.9c0.2,0,0.3,0,0.5,0.1v2.1
				c-0.2,0-0.4-0.1-0.7-0.1c-1,0-1.8,0.7-2,1.7c0,0.2-0.1,0.4-0.1,0.7v4.6h-2.2V325.3z"/>
			<path class="st2" d="M289,326.8c0,3.2-2.3,4.7-4.5,4.7c-2.5,0-4.4-1.7-4.4-4.5c0-2.9,1.9-4.6,4.5-4.6
				C287.2,322.3,289,324.1,289,326.8z M282.4,326.9c0,1.7,0.8,3,2.2,3c1.3,0,2.1-1.2,2.1-3c0-1.4-0.6-3-2.1-3
				C283,323.9,282.4,325.4,282.4,326.9z"/>
			<path class="st2" d="M290.8,325.4c0-1.2,0-2.1-0.1-2.9h1.9l0.1,1.4h0c0.6-1,1.7-1.5,3-1.5c2,0,3.7,1.7,3.7,4.5c0,3.2-2,4.7-4,4.7
				c-1.1,0-2-0.5-2.5-1.2h0v4.5h-2.2V325.4z M293,327.6c0,0.2,0,0.4,0.1,0.6c0.2,0.9,1,1.5,2,1.5c1.4,0,2.2-1.2,2.2-2.9
				c0-1.5-0.8-2.8-2.2-2.8c-0.9,0-1.8,0.7-2,1.6c0,0.2-0.1,0.4-0.1,0.6V327.6z"/>
			<path class="st2" d="M302.9,327.5c0.1,1.6,1.3,2.3,2.7,2.3c1,0,1.7-0.2,2.4-0.4l0.3,1.5c-0.8,0.3-1.8,0.6-3.1,0.6
				c-2.8,0-4.5-1.7-4.5-4.4c0-2.4,1.5-4.7,4.3-4.7c2.8,0,3.8,2.3,3.8,4.3c0,0.4,0,0.7-0.1,0.9H302.9z M306.7,325.9
				c0-0.8-0.3-2.1-1.8-2.1c-1.4,0-1.9,1.2-2,2.1H306.7z"/>
			<path class="st2" d="M317.4,329.1c0,0.8,0,1.6,0.1,2.1h-2l-0.2-1h-0.1c-0.5,0.7-1.4,1.2-2.6,1.2c-1.8,0-2.8-1.3-2.8-2.6
				c0-2.2,2-3.3,5.2-3.3v-0.1c0-0.6-0.2-1.5-1.8-1.5c-0.9,0-1.8,0.3-2.4,0.6l-0.4-1.4c0.6-0.4,1.8-0.8,3.2-0.8
				c2.8,0,3.6,1.8,3.6,3.7V329.1z M315.3,327c-1.6,0-3.1,0.3-3.1,1.6c0,0.9,0.6,1.3,1.3,1.3c0.9,0,1.5-0.6,1.7-1.2
				c0.1-0.2,0.1-0.3,0.1-0.5V327z"/>
		</g>
		<g>
			<rect x="185.3" y="347.4" class="st1" width="153.8" height="102.6"/>
			<g>
				<polygon class="st3" points="261.9,358.7 260.6,362.6 256.8,362.6 259.8,365.1 259,368.5 261.9,366.4 264.9,368.5 264.1,365.1 
					267.1,362.6 263.2,362.6 				"/>
				<polygon class="st3" points="261.9,426.6 260.6,430.4 256.8,430.4 259.8,433 259,436.3 261.9,434.3 264.9,436.3 264.1,433 
					267.1,430.4 263.2,430.4 				"/>
				<polygon class="st3" points="227.7,392.7 226.4,396.5 222.6,396.5 225.6,399.1 224.8,402.5 227.7,400.3 230.8,402.5 
					229.9,399.1 232.9,396.5 229,396.5 				"/>
				<polygon class="st3" points="296.1,392.7 294.8,396.5 291,396.5 294,399.1 293.1,402.5 296.1,400.3 299.1,402.5 298.3,399.1 
					301.3,396.5 297.4,396.5 				"/>
				<polygon class="st3" points="244.8,363.9 243.5,367.7 239.7,367.7 242.7,370.2 241.9,373.6 244.8,371.5 247.9,373.6 247,370.2 
					250,367.7 246.1,367.7 				"/>
				<polygon class="st3" points="279,363.9 277.7,367.7 273.9,367.7 276.9,370.2 276,373.6 279,371.5 282,373.6 281.2,370.2 
					284.2,367.7 280.3,367.7 				"/>
				<polygon class="st3" points="244.8,421.5 243.5,425.3 239.7,425.3 242.7,427.8 241.9,431.2 244.8,429.1 247.9,431.2 247,427.8 
					250,425.3 246.1,425.3 				"/>
				<polygon class="st3" points="279,421.5 277.7,425.3 273.9,425.3 276.9,427.8 276,431.2 279,429.1 282,431.2 281.2,427.8 
					284.2,425.3 280.3,425.3 				"/>
				<polygon class="st3" points="232.9,375.7 231.6,379.6 227.7,379.6 230.8,382.1 229.9,385.5 232.9,383.4 235.9,385.5 235,382.1 
					238,379.6 234.2,379.6 				"/>
				<polygon class="st3" points="291,375.7 289.7,379.6 285.9,379.6 288.8,382.1 288,385.5 291,383.4 294,385.5 293.1,382.1 
					296.1,379.6 292.3,379.6 				"/>
				<polygon class="st3" points="232.9,409.7 231.6,413.4 227.7,413.4 230.8,415.9 229.9,419.3 232.9,417.2 235.9,419.3 235,415.9 
					238,413.4 234.2,413.4 				"/>
				<polygon class="st3" points="291,409.7 289.7,413.4 285.9,413.4 288.8,415.9 288,419.3 291,417.2 294,419.3 293.1,415.9 
					296.1,413.4 292.3,413.4 				"/>
			</g>
		</g>
	</g>
</g>
</svg>
